<?xml version="1.0" standalone="no"?>
<!DOCTYPE svg PUBLIC "-//W3C//DTD SVG 20010904//EN"
 "http://www.w3.org/TR/2001/REC-SVG-20010904/DTD/svg10.dtd">
<svg version="1.0" xmlns="http://www.w3.org/2000/svg"
 width="512.000000pt" height="512.000000pt" viewBox="0 0 512.000000 512.000000"
 preserveAspectRatio="xMidYMid meet">

<g transform="translate(0.000000,512.000000) scale(0.100000,-0.100000)"
fill="#000000" stroke="none">
<path d="M0 2560 l0 -2560 2555 0 2555 0 0 2560 0 2560 -2555 0 -2555 0 0
-2560z m2471 1022 c124 -33 239 -124 295 -234 17 -33 29 -46 37 -41 7 4 62 41
122 82 206 138 364 198 545 208 271 14 448 -115 527 -382 16 -55 18 -131 21
-882 l3 -823 -280 0 -280 0 -3 693 -3 692 -25 44 c-31 56 -65 81 -118 88 -89
12 -180 -30 -379 -174 l-103 -75 0 -634 0 -634 -280 0 -280 0 0 673 c0 752 0
748 -65 806 -90 79 -217 42 -450 -131 l-105 -78 0 -635 0 -635 -282 2 -283 3
0 1015 0 1015 263 3 262 2 0 -125 c0 -69 2 -125 4 -125 3 0 42 27 88 60 157
113 327 195 463 225 85 19 227 17 306 -3z"/>
</g>
</svg>
